<mxfile host="app.diagrams.net" modified="2022-05-17T10:13:03.282Z" agent="5.0 (Macintosh; Intel Mac OS X 10_15_7) AppleWebKit/537.36 (KHTML, like Gecko) Chrome/101.0.4951.64 Safari/537.36" etag="qDT27CTe1n0_jjPqtpoC" version="17.5.0" type="github">
  <diagram id="sx4DB-smJGjERo_jBSHq" name="Page-1">
    <mxGraphModel dx="3778" dy="2700" grid="1" gridSize="10" guides="1" tooltips="1" connect="1" arrows="1" fold="1" page="1" pageScale="1" pageWidth="827" pageHeight="1169" background="#FFFFFF" math="0" shadow="0">
      <root>
        <mxCell id="0" />
        <mxCell id="1" parent="0" />
        <mxCell id="05hHKeat-juu67TqZmML-72" style="edgeStyle=orthogonalEdgeStyle;rounded=0;orthogonalLoop=1;jettySize=auto;html=1;fontSize=17;" parent="1" source="05hHKeat-juu67TqZmML-2" target="05hHKeat-juu67TqZmML-4" edge="1">
          <mxGeometry relative="1" as="geometry" />
        </mxCell>
        <mxCell id="05hHKeat-juu67TqZmML-2" value="" style="outlineConnect=0;dashed=0;verticalLabelPosition=bottom;verticalAlign=top;align=center;html=1;shape=mxgraph.aws3.api_gateway;fillColor=#D9A741;gradientColor=none;" parent="1" vertex="1">
          <mxGeometry x="236.75" y="130" width="76.5" height="93" as="geometry" />
        </mxCell>
        <mxCell id="05hHKeat-juu67TqZmML-3" value="AWS API Gateway" style="text;html=1;align=center;verticalAlign=middle;resizable=0;points=[];autosize=1;strokeColor=none;fillColor=none;" parent="1" vertex="1">
          <mxGeometry x="210" y="110" width="120" height="20" as="geometry" />
        </mxCell>
        <mxCell id="05hHKeat-juu67TqZmML-40" style="edgeStyle=orthogonalEdgeStyle;rounded=0;orthogonalLoop=1;jettySize=auto;html=1;exitX=1;exitY=0.25;exitDx=0;exitDy=0;entryX=0;entryY=0.21;entryDx=0;entryDy=0;entryPerimeter=0;fontSize=17;" parent="1" source="05hHKeat-juu67TqZmML-4" target="05hHKeat-juu67TqZmML-9" edge="1">
          <mxGeometry relative="1" as="geometry" />
        </mxCell>
        <mxCell id="05hHKeat-juu67TqZmML-43" style="edgeStyle=orthogonalEdgeStyle;rounded=0;orthogonalLoop=1;jettySize=auto;html=1;exitX=0.5;exitY=1;exitDx=0;exitDy=0;fontSize=17;" parent="1" source="05hHKeat-juu67TqZmML-4" target="05hHKeat-juu67TqZmML-22" edge="1">
          <mxGeometry relative="1" as="geometry" />
        </mxCell>
        <mxCell id="05hHKeat-juu67TqZmML-44" style="edgeStyle=orthogonalEdgeStyle;rounded=0;orthogonalLoop=1;jettySize=auto;html=1;entryX=0.507;entryY=0;entryDx=0;entryDy=0;entryPerimeter=0;fontSize=17;" parent="1" source="05hHKeat-juu67TqZmML-4" target="05hHKeat-juu67TqZmML-23" edge="1">
          <mxGeometry relative="1" as="geometry" />
        </mxCell>
        <mxCell id="05hHKeat-juu67TqZmML-4" value="Authorization request" style="whiteSpace=wrap;html=1;fillColor=#f5f5f5;fontColor=#333333;strokeColor=#666666;" parent="1" vertex="1">
          <mxGeometry x="70" y="320" width="410" height="80" as="geometry" />
        </mxCell>
        <mxCell id="05hHKeat-juu67TqZmML-41" style="edgeStyle=orthogonalEdgeStyle;rounded=0;orthogonalLoop=1;jettySize=auto;html=1;exitX=0;exitY=0.79;exitDx=0;exitDy=0;exitPerimeter=0;fontSize=17;" parent="1" source="05hHKeat-juu67TqZmML-9" edge="1">
          <mxGeometry relative="1" as="geometry">
            <mxPoint x="480" y="393" as="targetPoint" />
          </mxGeometry>
        </mxCell>
        <mxCell id="05hHKeat-juu67TqZmML-9" value="" style="outlineConnect=0;dashed=0;verticalLabelPosition=bottom;verticalAlign=top;align=center;html=1;shape=mxgraph.aws3.lambda;fillColor=#F58534;gradientColor=none;" parent="1" vertex="1">
          <mxGeometry x="840" y="320" width="76.5" height="93" as="geometry" />
        </mxCell>
        <mxCell id="05hHKeat-juu67TqZmML-20" style="edgeStyle=orthogonalEdgeStyle;rounded=0;orthogonalLoop=1;jettySize=auto;html=1;exitX=0.5;exitY=1;exitDx=0;exitDy=0;exitPerimeter=0;fontSize=17;" parent="1" source="05hHKeat-juu67TqZmML-17" target="05hHKeat-juu67TqZmML-19" edge="1">
          <mxGeometry relative="1" as="geometry" />
        </mxCell>
        <mxCell id="05hHKeat-juu67TqZmML-47" style="edgeStyle=orthogonalEdgeStyle;rounded=0;orthogonalLoop=1;jettySize=auto;html=1;exitX=0.5;exitY=1;exitDx=0;exitDy=0;exitPerimeter=0;entryX=0.5;entryY=0;entryDx=0;entryDy=0;entryPerimeter=0;fontSize=17;" parent="1" source="05hHKeat-juu67TqZmML-17" target="05hHKeat-juu67TqZmML-24" edge="1">
          <mxGeometry relative="1" as="geometry" />
        </mxCell>
        <mxCell id="05hHKeat-juu67TqZmML-17" value="" style="outlineConnect=0;dashed=0;verticalLabelPosition=bottom;verticalAlign=top;align=center;html=1;shape=mxgraph.aws3.lambda;fillColor=#F58534;gradientColor=none;" parent="1" vertex="1">
          <mxGeometry x="100" y="480" width="76.5" height="93" as="geometry" />
        </mxCell>
        <mxCell id="05hHKeat-juu67TqZmML-63" style="edgeStyle=orthogonalEdgeStyle;rounded=0;orthogonalLoop=1;jettySize=auto;html=1;fontSize=17;" parent="1" source="05hHKeat-juu67TqZmML-18" target="05hHKeat-juu67TqZmML-19" edge="1">
          <mxGeometry relative="1" as="geometry" />
        </mxCell>
        <mxCell id="05hHKeat-juu67TqZmML-18" value="" style="outlineConnect=0;dashed=0;verticalLabelPosition=bottom;verticalAlign=top;align=center;html=1;shape=mxgraph.aws3.lambda;fillColor=#F58534;gradientColor=none;" parent="1" vertex="1">
          <mxGeometry x="350" y="480" width="76.5" height="93" as="geometry" />
        </mxCell>
        <mxCell id="05hHKeat-juu67TqZmML-19" value="Amazon DynamoDB" style="sketch=0;outlineConnect=0;fontColor=#232F3E;gradientColor=none;strokeColor=#ffffff;fillColor=#232F3E;dashed=0;verticalLabelPosition=middle;verticalAlign=bottom;align=center;html=1;whiteSpace=wrap;fontSize=10;fontStyle=1;spacing=3;shape=mxgraph.aws4.productIcon;prIcon=mxgraph.aws4.dynamodb;" parent="1" vertex="1">
          <mxGeometry x="790" y="880" width="80" height="110" as="geometry" />
        </mxCell>
        <mxCell id="05hHKeat-juu67TqZmML-22" value="POST - /track&lt;br&gt;create track" style="text;html=1;align=center;verticalAlign=middle;resizable=0;points=[];autosize=1;strokeColor=none;fillColor=none;fontSize=17;" parent="1" vertex="1">
          <mxGeometry x="80" y="435" width="120" height="50" as="geometry" />
        </mxCell>
        <mxCell id="05hHKeat-juu67TqZmML-23" value="GET - /track/{id}&lt;br&gt;get track by id" style="text;html=1;align=center;verticalAlign=middle;resizable=0;points=[];autosize=1;strokeColor=none;fillColor=none;fontSize=17;" parent="1" vertex="1">
          <mxGeometry x="330" y="435" width="140" height="50" as="geometry" />
        </mxCell>
        <mxCell id="05hHKeat-juu67TqZmML-50" style="edgeStyle=orthogonalEdgeStyle;rounded=0;orthogonalLoop=1;jettySize=auto;html=1;fontSize=17;" parent="1" source="05hHKeat-juu67TqZmML-24" target="05hHKeat-juu67TqZmML-25" edge="1">
          <mxGeometry relative="1" as="geometry" />
        </mxCell>
        <mxCell id="05hHKeat-juu67TqZmML-24" value="" style="outlineConnect=0;dashed=0;verticalLabelPosition=bottom;verticalAlign=top;align=center;html=1;shape=mxgraph.aws3.sqs;fillColor=#D9A741;gradientColor=none;fontSize=17;" parent="1" vertex="1">
          <mxGeometry x="100" y="880" width="76.5" height="93" as="geometry" />
        </mxCell>
        <mxCell id="05hHKeat-juu67TqZmML-61" style="edgeStyle=orthogonalEdgeStyle;rounded=0;orthogonalLoop=1;jettySize=auto;html=1;exitX=1;exitY=0.5;exitDx=0;exitDy=0;exitPerimeter=0;fontSize=17;" parent="1" source="05hHKeat-juu67TqZmML-25" target="05hHKeat-juu67TqZmML-19" edge="1">
          <mxGeometry relative="1" as="geometry">
            <Array as="points">
              <mxPoint x="720" y="927" />
              <mxPoint x="720" y="927" />
            </Array>
          </mxGeometry>
        </mxCell>
        <mxCell id="05hHKeat-juu67TqZmML-25" value="" style="outlineConnect=0;dashed=0;verticalLabelPosition=bottom;verticalAlign=top;align=center;html=1;shape=mxgraph.aws3.lambda;fillColor=#F58534;gradientColor=none;fontSize=17;" parent="1" vertex="1">
          <mxGeometry x="380" y="880" width="76.5" height="93" as="geometry" />
        </mxCell>
        <mxCell id="05hHKeat-juu67TqZmML-46" value="dispatch track" style="text;html=1;align=center;verticalAlign=middle;resizable=0;points=[];autosize=1;strokeColor=none;fillColor=none;fontSize=17;" parent="1" vertex="1">
          <mxGeometry x="360" y="980" width="120" height="30" as="geometry" />
        </mxCell>
        <mxCell id="05hHKeat-juu67TqZmML-48" value="auth service" style="text;html=1;align=center;verticalAlign=middle;resizable=0;points=[];autosize=1;strokeColor=none;fillColor=none;fontSize=17;" parent="1" vertex="1">
          <mxGeometry x="827" y="420" width="110" height="30" as="geometry" />
        </mxCell>
        <mxCell id="05hHKeat-juu67TqZmML-49" value="AWS SQS" style="text;html=1;align=center;verticalAlign=middle;resizable=0;points=[];autosize=1;strokeColor=none;fillColor=none;fontSize=17;" parent="1" vertex="1">
          <mxGeometry x="95" y="980" width="90" height="30" as="geometry" />
        </mxCell>
        <mxCell id="05hHKeat-juu67TqZmML-56" style="edgeStyle=orthogonalEdgeStyle;rounded=0;orthogonalLoop=1;jettySize=auto;html=1;exitX=1;exitY=0.5;exitDx=0;exitDy=0;exitPerimeter=0;fontSize=17;" parent="1" source="05hHKeat-juu67TqZmML-52" edge="1">
          <mxGeometry relative="1" as="geometry">
            <mxPoint x="380" y="1199" as="targetPoint" />
          </mxGeometry>
        </mxCell>
        <mxCell id="05hHKeat-juu67TqZmML-52" value="" style="sketch=0;points=[[0,0,0],[0.25,0,0],[0.5,0,0],[0.75,0,0],[1,0,0],[0,1,0],[0.25,1,0],[0.5,1,0],[0.75,1,0],[1,1,0],[0,0.25,0],[0,0.5,0],[0,0.75,0],[1,0.25,0],[1,0.5,0],[1,0.75,0]];outlineConnect=0;fontColor=#232F3E;gradientColor=#FF4F8B;gradientDirection=north;fillColor=#BC1356;strokeColor=#ffffff;dashed=0;verticalLabelPosition=bottom;verticalAlign=top;align=center;html=1;fontSize=12;fontStyle=0;aspect=fixed;shape=mxgraph.aws4.resourceIcon;resIcon=mxgraph.aws4.eventbridge;" parent="1" vertex="1">
          <mxGeometry x="99.25" y="1160" width="78" height="78" as="geometry" />
        </mxCell>
        <mxCell id="05hHKeat-juu67TqZmML-53" value="AWS EventBridge" style="text;html=1;align=center;verticalAlign=middle;resizable=0;points=[];autosize=1;strokeColor=none;fillColor=none;fontSize=17;" parent="1" vertex="1">
          <mxGeometry x="65" y="1255" width="150" height="30" as="geometry" />
        </mxCell>
        <mxCell id="05hHKeat-juu67TqZmML-62" style="edgeStyle=orthogonalEdgeStyle;rounded=0;orthogonalLoop=1;jettySize=auto;html=1;fontSize=17;" parent="1" source="05hHKeat-juu67TqZmML-54" target="05hHKeat-juu67TqZmML-19" edge="1">
          <mxGeometry relative="1" as="geometry" />
        </mxCell>
        <mxCell id="05hHKeat-juu67TqZmML-54" value="" style="outlineConnect=0;dashed=0;verticalLabelPosition=bottom;verticalAlign=top;align=center;html=1;shape=mxgraph.aws3.lambda;fillColor=#F58534;gradientColor=none;fontSize=17;" parent="1" vertex="1">
          <mxGeometry x="390" y="1160" width="76.5" height="93" as="geometry" />
        </mxCell>
        <mxCell id="05hHKeat-juu67TqZmML-55" value="finish track" style="text;html=1;align=center;verticalAlign=middle;resizable=0;points=[];autosize=1;strokeColor=none;fillColor=none;fontSize=17;" parent="1" vertex="1">
          <mxGeometry x="378.25" y="1255" width="100" height="30" as="geometry" />
        </mxCell>
        <mxCell id="05hHKeat-juu67TqZmML-57" value="" style="html=1;verticalLabelPosition=bottom;align=center;labelBackgroundColor=#ffffff;verticalAlign=top;strokeWidth=2;strokeColor=#0080F0;shadow=0;dashed=0;shape=mxgraph.ios7.icons.stopwatch;fontSize=17;" parent="1" vertex="1">
          <mxGeometry x="126.5" y="1080" width="27" height="28.2" as="geometry" />
        </mxCell>
        <mxCell id="05hHKeat-juu67TqZmML-59" value="every minute" style="text;html=1;align=center;verticalAlign=middle;resizable=0;points=[];autosize=1;strokeColor=none;fillColor=none;fontSize=17;" parent="1" vertex="1">
          <mxGeometry x="85" y="1108.2" width="110" height="30" as="geometry" />
        </mxCell>
        <mxCell id="05hHKeat-juu67TqZmML-73" style="edgeStyle=orthogonalEdgeStyle;rounded=0;orthogonalLoop=1;jettySize=auto;html=1;fontSize=17;" parent="1" edge="1">
          <mxGeometry relative="1" as="geometry">
            <mxPoint x="275" y="100" as="targetPoint" />
            <mxPoint x="275" y="-70" as="sourcePoint" />
          </mxGeometry>
        </mxCell>
        <mxCell id="05hHKeat-juu67TqZmML-75" value="" style="sketch=0;outlineConnect=0;fontColor=#232F3E;gradientColor=none;fillColor=#232F3D;strokeColor=none;dashed=0;verticalLabelPosition=bottom;verticalAlign=top;align=center;html=1;fontSize=12;fontStyle=0;aspect=fixed;pointerEvents=1;shape=mxgraph.aws4.client;" parent="1" vertex="1">
          <mxGeometry x="235.25" y="-150" width="78" height="76" as="geometry" />
        </mxCell>
        <mxCell id="05hHKeat-juu67TqZmML-76" value="AWS Cloud" style="points=[[0,0],[0.25,0],[0.5,0],[0.75,0],[1,0],[1,0.25],[1,0.5],[1,0.75],[1,1],[0.75,1],[0.5,1],[0.25,1],[0,1],[0,0.75],[0,0.5],[0,0.25]];outlineConnect=0;gradientColor=none;html=1;whiteSpace=wrap;fontSize=12;fontStyle=0;container=1;pointerEvents=0;collapsible=0;recursiveResize=0;shape=mxgraph.aws4.group;grIcon=mxgraph.aws4.group_aws_cloud_alt;strokeColor=#232F3E;fillColor=none;verticalAlign=top;align=left;spacingLeft=30;fontColor=#232F3E;dashed=0;" parent="1" vertex="1">
          <mxGeometry x="20" y="80" width="1520" height="1340" as="geometry" />
        </mxCell>
        <mxCell id="05hHKeat-juu67TqZmML-79" value="Authentication" style="fillColor=none;strokeColor=#000000;dashed=1;verticalAlign=top;fontStyle=0;fontColor=#000000;fontSize=17;" parent="05hHKeat-juu67TqZmML-76" vertex="1">
          <mxGeometry x="710" y="180" width="290" height="210" as="geometry" />
        </mxCell>
        <mxCell id="05hHKeat-juu67TqZmML-81" value="JWT Token" style="text;html=1;align=center;verticalAlign=middle;resizable=0;points=[];autosize=1;strokeColor=none;fillColor=none;fontSize=17;" parent="05hHKeat-juu67TqZmML-76" vertex="1">
          <mxGeometry x="510" y="230" width="100" height="30" as="geometry" />
        </mxCell>
        <mxCell id="05hHKeat-juu67TqZmML-82" value="&lt;b&gt;&lt;font style=&quot;font-size: 27px&quot;&gt;Track service&lt;/font&gt;&lt;/b&gt;" style="text;html=1;align=center;verticalAlign=middle;resizable=0;points=[];autosize=1;strokeColor=none;fillColor=none;fontSize=17;fontColor=#000000;" parent="1" vertex="1">
          <mxGeometry x="-5" y="-127" width="190" height="30" as="geometry" />
        </mxCell>
      </root>
    </mxGraphModel>
  </diagram>
</mxfile>
